<svg width="675" height="205" viewBox="0 0 675 205" fill="none" xmlns="http://www.w3.org/2000/svg">
<ellipse cx="117" cy="102.5" rx="100" ry="102.5" fill="#0029FF"/>
<path d="M85.8828 132.6C92.0161 133.4 98.4828 133.8 105.283 133.8C112.216 133.8 118.883 133.333 125.283 132.4L123.283 102L158.083 99.6L150.483 170.8L128.283 173L126.683 151.6C124.683 151.733 120.083 151.8 112.883 151.8C105.816 151.8 97.8828 150.667 89.0828 148.4C80.2828 146.133 73.6161 143.2 69.0828 139.6C66.8161 130 65.6828 120.733 65.6828 111.8C65.6828 94.3333 69.8161 78.4 78.0828 64C86.3495 49.4667 95.9495 39.4667 106.883 34L143.483 58.4C127.483 66.4 113.883 77.3333 102.683 91.2C91.4828 105.067 85.8828 118.867 85.8828 132.6Z" fill="white"/>
<mask id="path-3-outside-1_12_3" maskUnits="userSpaceOnUse" x="230" y="61" width="394" height="92" fill="black">
<rect fill="white" x="230" y="61" width="394" height="92"/>
<path d="M253.197 128.9C249.597 128.9 246.23 128.267 243.097 127C240.03 125.733 237.43 123.967 235.297 121.7L241.097 114C243.23 115.933 245.197 117.333 246.997 118.2C248.864 119 250.53 119.4 251.997 119.4C253.13 119.4 254.13 119.3 254.997 119.1C255.93 118.833 256.664 118.467 257.197 118C257.73 117.467 257.997 116.8 257.997 116C257.997 114.867 257.53 113.967 256.597 113.3C255.73 112.633 254.597 112.1 253.197 111.7C251.797 111.233 250.297 110.767 248.697 110.3C244.697 109.033 241.797 107.2 239.997 104.8C238.264 102.333 237.397 99.6667 237.397 96.8C237.397 94.6 237.964 92.4 239.097 90.2C240.297 87.9333 242.164 86.0667 244.697 84.6C247.297 83.0667 250.63 82.3 254.697 82.3C258.364 82.3 261.464 82.6667 263.997 83.4C266.53 84.1333 268.93 85.3333 271.197 87L265.897 95.2C264.63 94.2 263.197 93.3667 261.597 92.7C260.064 91.9667 258.63 91.5667 257.297 91.5C256.097 91.4333 255.064 91.5667 254.197 91.9C253.397 92.2333 252.764 92.6667 252.297 93.2C251.83 93.7333 251.597 94.3 251.597 94.9C251.53 96.1667 251.997 97.1667 252.997 97.9C254.064 98.6333 255.397 99.2 256.997 99.6C258.597 100 260.164 100.467 261.697 101C263.83 101.667 265.664 102.567 267.197 103.7C268.73 104.833 269.897 106.2 270.697 107.8C271.564 109.333 271.997 111.2 271.997 113.4C271.997 116.067 271.297 118.6 269.897 121C268.564 123.333 266.497 125.233 263.697 126.7C260.964 128.167 257.464 128.9 253.197 128.9ZM287.823 65.1H301.823V84.1H312.423V95H301.823V128H287.823V95H281.023V84.1H287.823V65.1ZM341.479 129.2C337.412 129.2 333.712 128.4 330.379 126.8C327.112 125.133 324.512 122.6 322.579 119.2C320.646 115.8 319.679 111.467 319.679 106.2C319.679 101.267 320.679 97 322.679 93.4C324.679 89.8 327.312 87.0333 330.579 85.1C333.846 83.1 337.312 82.1 340.979 82.1C345.312 82.1 348.579 82.8333 350.779 84.3C353.046 85.7 354.912 87.2667 356.379 89L355.779 90.7L357.079 84.3H370.079V128H356.079V118.5L357.179 121.5C357.046 121.5 356.646 121.9 355.979 122.7C355.312 123.433 354.312 124.333 352.979 125.4C351.712 126.4 350.112 127.267 348.179 128C346.312 128.8 344.079 129.2 341.479 129.2ZM345.479 117.8C347.146 117.8 348.646 117.567 349.979 117.1C351.312 116.567 352.479 115.833 353.479 114.9C354.479 113.9 355.346 112.667 356.079 111.2V100.5C355.546 99.0333 354.746 97.8 353.679 96.8C352.612 95.7333 351.346 94.9333 349.879 94.4C348.412 93.8 346.779 93.5 344.979 93.5C342.979 93.5 341.112 94.0333 339.379 95.1C337.712 96.1 336.379 97.5 335.379 99.3C334.379 101.1 333.879 103.167 333.879 105.5C333.879 107.833 334.412 109.933 335.479 111.8C336.546 113.667 337.946 115.133 339.679 116.2C341.479 117.267 343.412 117.8 345.479 117.8ZM397.105 84.3L398.405 96.3L398.105 94.5C399.371 91.9 401.105 89.7 403.305 87.9C405.505 86.0333 407.671 84.6 409.805 83.6C412.005 82.6 413.671 82.1 414.805 82.1L414.105 96.1C410.838 95.7 408.038 96.2333 405.705 97.7C403.371 99.1667 401.571 101.1 400.305 103.5C399.038 105.9 398.405 108.367 398.405 110.9V128H384.505V84.3H397.105ZM429.62 65.1H443.62V84.1H454.22V95H443.62V128H429.62V95H422.82V84.1H429.62V65.1ZM478.976 130.1C475.042 130.1 471.742 128.9 469.076 126.5C466.409 124.033 465.009 120.867 464.876 117V84.3H478.876V111.8C479.009 113.733 479.509 115.3 480.376 116.5C481.242 117.633 482.709 118.2 484.776 118.2C486.842 118.2 488.609 117.5 490.076 116.1C491.609 114.7 492.776 112.8 493.576 110.4C494.442 107.933 494.876 105.167 494.876 102.1V84.3H508.876V128H496.176L495.076 120L495.276 120.9C494.276 122.7 493.009 124.3 491.476 125.7C489.942 127.1 488.109 128.167 485.976 128.9C483.909 129.7 481.576 130.1 478.976 130.1ZM550.674 129.2C548.074 129.2 545.508 128.733 542.974 127.8C540.508 126.8 538.441 125.4 536.774 123.6L537.174 119.5V149H523.274V83.3H535.274L537.274 91.8L536.174 88.8C538.441 86.8667 540.974 85.2667 543.774 84C546.574 82.7333 549.808 82.1 553.474 82.1C557.541 82.1 561.174 83.0667 564.374 85C567.574 86.8667 570.074 89.6 571.874 93.2C573.741 96.7333 574.674 101 574.674 106C574.674 110.933 573.641 115.133 571.574 118.6C569.508 122.067 566.674 124.7 563.074 126.5C559.474 128.3 555.341 129.2 550.674 129.2ZM547.874 118.2C550.141 118.2 552.208 117.7 554.074 116.7C556.008 115.7 557.541 114.3 558.674 112.5C559.874 110.633 560.474 108.533 560.474 106.2C560.474 103.733 559.941 101.6 558.874 99.8C557.874 97.9333 556.474 96.5 554.674 95.5C552.941 94.4333 551.008 93.9 548.874 93.9C547.008 93.9 545.341 94.1667 543.874 94.7C542.474 95.1667 541.208 95.9 540.074 96.9C539.008 97.8333 538.074 99.0333 537.274 100.5V111.2C537.808 112.6 538.574 113.833 539.574 114.9C540.574 115.967 541.774 116.8 543.174 117.4C544.641 117.933 546.208 118.2 547.874 118.2ZM599.877 128.9C596.277 128.9 592.91 128.267 589.777 127C586.71 125.733 584.11 123.967 581.977 121.7L587.777 114C589.91 115.933 591.877 117.333 593.677 118.2C595.543 119 597.21 119.4 598.677 119.4C599.81 119.4 600.81 119.3 601.677 119.1C602.61 118.833 603.343 118.467 603.877 118C604.41 117.467 604.677 116.8 604.677 116C604.677 114.867 604.21 113.967 603.277 113.3C602.41 112.633 601.277 112.1 599.877 111.7C598.477 111.233 596.977 110.767 595.377 110.3C591.377 109.033 588.477 107.2 586.677 104.8C584.943 102.333 584.077 99.6667 584.077 96.8C584.077 94.6 584.643 92.4 585.777 90.2C586.977 87.9333 588.843 86.0667 591.377 84.6C593.977 83.0667 597.31 82.3 601.377 82.3C605.043 82.3 608.143 82.6667 610.677 83.4C613.21 84.1333 615.61 85.3333 617.877 87L612.577 95.2C611.31 94.2 609.877 93.3667 608.277 92.7C606.743 91.9667 605.31 91.5667 603.977 91.5C602.777 91.4333 601.743 91.5667 600.877 91.9C600.077 92.2333 599.443 92.6667 598.977 93.2C598.51 93.7333 598.277 94.3 598.277 94.9C598.21 96.1667 598.677 97.1667 599.677 97.9C600.743 98.6333 602.077 99.2 603.677 99.6C605.277 100 606.843 100.467 608.377 101C610.51 101.667 612.343 102.567 613.877 103.7C615.41 104.833 616.577 106.2 617.377 107.8C618.243 109.333 618.677 111.2 618.677 113.4C618.677 116.067 617.977 118.6 616.577 121C615.243 123.333 613.177 125.233 610.377 126.7C607.643 128.167 604.143 128.9 599.877 128.9Z"/>
</mask>
<path d="M253.197 128.9C249.597 128.9 246.23 128.267 243.097 127C240.03 125.733 237.43 123.967 235.297 121.7L241.097 114C243.23 115.933 245.197 117.333 246.997 118.2C248.864 119 250.53 119.4 251.997 119.4C253.13 119.4 254.13 119.3 254.997 119.1C255.93 118.833 256.664 118.467 257.197 118C257.73 117.467 257.997 116.8 257.997 116C257.997 114.867 257.53 113.967 256.597 113.3C255.73 112.633 254.597 112.1 253.197 111.7C251.797 111.233 250.297 110.767 248.697 110.3C244.697 109.033 241.797 107.2 239.997 104.8C238.264 102.333 237.397 99.6667 237.397 96.8C237.397 94.6 237.964 92.4 239.097 90.2C240.297 87.9333 242.164 86.0667 244.697 84.6C247.297 83.0667 250.63 82.3 254.697 82.3C258.364 82.3 261.464 82.6667 263.997 83.4C266.53 84.1333 268.93 85.3333 271.197 87L265.897 95.2C264.63 94.2 263.197 93.3667 261.597 92.7C260.064 91.9667 258.63 91.5667 257.297 91.5C256.097 91.4333 255.064 91.5667 254.197 91.9C253.397 92.2333 252.764 92.6667 252.297 93.2C251.83 93.7333 251.597 94.3 251.597 94.9C251.53 96.1667 251.997 97.1667 252.997 97.9C254.064 98.6333 255.397 99.2 256.997 99.6C258.597 100 260.164 100.467 261.697 101C263.83 101.667 265.664 102.567 267.197 103.7C268.73 104.833 269.897 106.2 270.697 107.8C271.564 109.333 271.997 111.2 271.997 113.4C271.997 116.067 271.297 118.6 269.897 121C268.564 123.333 266.497 125.233 263.697 126.7C260.964 128.167 257.464 128.9 253.197 128.9ZM287.823 65.1H301.823V84.1H312.423V95H301.823V128H287.823V95H281.023V84.1H287.823V65.1ZM341.479 129.2C337.412 129.2 333.712 128.4 330.379 126.8C327.112 125.133 324.512 122.6 322.579 119.2C320.646 115.8 319.679 111.467 319.679 106.2C319.679 101.267 320.679 97 322.679 93.4C324.679 89.8 327.312 87.0333 330.579 85.1C333.846 83.1 337.312 82.1 340.979 82.1C345.312 82.1 348.579 82.8333 350.779 84.3C353.046 85.7 354.912 87.2667 356.379 89L355.779 90.7L357.079 84.3H370.079V128H356.079V118.5L357.179 121.5C357.046 121.5 356.646 121.9 355.979 122.7C355.312 123.433 354.312 124.333 352.979 125.4C351.712 126.4 350.112 127.267 348.179 128C346.312 128.8 344.079 129.2 341.479 129.2ZM345.479 117.8C347.146 117.8 348.646 117.567 349.979 117.1C351.312 116.567 352.479 115.833 353.479 114.9C354.479 113.9 355.346 112.667 356.079 111.2V100.5C355.546 99.0333 354.746 97.8 353.679 96.8C352.612 95.7333 351.346 94.9333 349.879 94.4C348.412 93.8 346.779 93.5 344.979 93.5C342.979 93.5 341.112 94.0333 339.379 95.1C337.712 96.1 336.379 97.5 335.379 99.3C334.379 101.1 333.879 103.167 333.879 105.5C333.879 107.833 334.412 109.933 335.479 111.8C336.546 113.667 337.946 115.133 339.679 116.2C341.479 117.267 343.412 117.8 345.479 117.8ZM397.105 84.3L398.405 96.3L398.105 94.5C399.371 91.9 401.105 89.7 403.305 87.9C405.505 86.0333 407.671 84.6 409.805 83.6C412.005 82.6 413.671 82.1 414.805 82.1L414.105 96.1C410.838 95.7 408.038 96.2333 405.705 97.7C403.371 99.1667 401.571 101.1 400.305 103.5C399.038 105.9 398.405 108.367 398.405 110.9V128H384.505V84.3H397.105ZM429.62 65.1H443.62V84.1H454.22V95H443.62V128H429.62V95H422.82V84.1H429.62V65.1ZM478.976 130.1C475.042 130.1 471.742 128.9 469.076 126.5C466.409 124.033 465.009 120.867 464.876 117V84.3H478.876V111.8C479.009 113.733 479.509 115.3 480.376 116.5C481.242 117.633 482.709 118.2 484.776 118.2C486.842 118.2 488.609 117.5 490.076 116.1C491.609 114.7 492.776 112.8 493.576 110.4C494.442 107.933 494.876 105.167 494.876 102.1V84.3H508.876V128H496.176L495.076 120L495.276 120.9C494.276 122.7 493.009 124.3 491.476 125.7C489.942 127.1 488.109 128.167 485.976 128.9C483.909 129.7 481.576 130.1 478.976 130.1ZM550.674 129.2C548.074 129.2 545.508 128.733 542.974 127.8C540.508 126.8 538.441 125.4 536.774 123.6L537.174 119.5V149H523.274V83.3H535.274L537.274 91.8L536.174 88.8C538.441 86.8667 540.974 85.2667 543.774 84C546.574 82.7333 549.808 82.1 553.474 82.1C557.541 82.1 561.174 83.0667 564.374 85C567.574 86.8667 570.074 89.6 571.874 93.2C573.741 96.7333 574.674 101 574.674 106C574.674 110.933 573.641 115.133 571.574 118.6C569.508 122.067 566.674 124.7 563.074 126.5C559.474 128.3 555.341 129.2 550.674 129.2ZM547.874 118.2C550.141 118.2 552.208 117.7 554.074 116.7C556.008 115.7 557.541 114.3 558.674 112.5C559.874 110.633 560.474 108.533 560.474 106.2C560.474 103.733 559.941 101.6 558.874 99.8C557.874 97.9333 556.474 96.5 554.674 95.5C552.941 94.4333 551.008 93.9 548.874 93.9C547.008 93.9 545.341 94.1667 543.874 94.7C542.474 95.1667 541.208 95.9 540.074 96.9C539.008 97.8333 538.074 99.0333 537.274 100.5V111.2C537.808 112.6 538.574 113.833 539.574 114.9C540.574 115.967 541.774 116.8 543.174 117.4C544.641 117.933 546.208 118.2 547.874 118.2ZM599.877 128.9C596.277 128.9 592.91 128.267 589.777 127C586.71 125.733 584.11 123.967 581.977 121.7L587.777 114C589.91 115.933 591.877 117.333 593.677 118.2C595.543 119 597.21 119.4 598.677 119.4C599.81 119.4 600.81 119.3 601.677 119.1C602.61 118.833 603.343 118.467 603.877 118C604.41 117.467 604.677 116.8 604.677 116C604.677 114.867 604.21 113.967 603.277 113.3C602.41 112.633 601.277 112.1 599.877 111.7C598.477 111.233 596.977 110.767 595.377 110.3C591.377 109.033 588.477 107.2 586.677 104.8C584.943 102.333 584.077 99.6667 584.077 96.8C584.077 94.6 584.643 92.4 585.777 90.2C586.977 87.9333 588.843 86.0667 591.377 84.6C593.977 83.0667 597.31 82.3 601.377 82.3C605.043 82.3 608.143 82.6667 610.677 83.4C613.21 84.1333 615.61 85.3333 617.877 87L612.577 95.2C611.31 94.2 609.877 93.3667 608.277 92.7C606.743 91.9667 605.31 91.5667 603.977 91.5C602.777 91.4333 601.743 91.5667 600.877 91.9C600.077 92.2333 599.443 92.6667 598.977 93.2C598.51 93.7333 598.277 94.3 598.277 94.9C598.21 96.1667 598.677 97.1667 599.677 97.9C600.743 98.6333 602.077 99.2 603.677 99.6C605.277 100 606.843 100.467 608.377 101C610.51 101.667 612.343 102.567 613.877 103.7C615.41 104.833 616.577 106.2 617.377 107.8C618.243 109.333 618.677 111.2 618.677 113.4C618.677 116.067 617.977 118.6 616.577 121C615.243 123.333 613.177 125.233 610.377 126.7C607.643 128.167 604.143 128.9 599.877 128.9Z" fill="white"/>
<path d="M243.097 127L241.57 130.697L241.584 130.703L241.598 130.708L243.097 127ZM235.297 121.7L232.102 119.293L230.073 121.986L232.384 124.441L235.297 121.7ZM241.097 114L243.783 111.036L240.537 108.095L237.902 111.593L241.097 114ZM246.997 118.2L245.262 121.804L245.341 121.842L245.421 121.877L246.997 118.2ZM254.997 119.1L255.896 122.998L255.997 122.974L256.096 122.946L254.997 119.1ZM257.197 118L259.831 121.01L259.931 120.923L260.025 120.828L257.197 118ZM256.597 113.3L254.158 116.47L254.214 116.514L254.272 116.555L256.597 113.3ZM253.197 111.7L251.932 115.495L252.014 115.522L252.098 115.546L253.197 111.7ZM248.697 110.3L247.489 114.113L247.533 114.127L247.577 114.14L248.697 110.3ZM239.997 104.8L236.724 107.1L236.76 107.15L236.797 107.2L239.997 104.8ZM239.097 90.2L235.562 88.3284L235.551 88.3483L235.541 88.3682L239.097 90.2ZM244.697 84.6L246.701 88.0617L246.715 88.0536L246.729 88.0455L244.697 84.6ZM263.997 83.4L262.885 87.2423L262.885 87.2423L263.997 83.4ZM271.197 87L274.556 89.1713L276.601 86.0084L273.566 83.7774L271.197 87ZM265.897 95.2L263.418 98.3395L266.869 101.064L269.256 97.3713L265.897 95.2ZM261.597 92.7L259.871 96.3085L259.964 96.3528L260.058 96.3923L261.597 92.7ZM257.297 91.5L257.075 95.4938L257.086 95.4945L257.097 95.495L257.297 91.5ZM254.197 91.9L252.761 88.1666L252.709 88.1864L252.658 88.2077L254.197 91.9ZM252.297 93.2L249.287 90.566L249.287 90.566L252.297 93.2ZM251.597 94.9L255.591 95.1102L255.597 95.0052V94.9H251.597ZM252.997 97.9L250.631 101.126L250.681 101.162L250.731 101.196L252.997 97.9ZM256.997 99.6L256.027 103.481L256.027 103.481L256.997 99.6ZM261.697 101L260.383 104.778L260.443 104.799L260.504 104.818L261.697 101ZM267.197 103.7L264.819 106.917L264.819 106.917L267.197 103.7ZM270.697 107.8L267.119 109.589L267.165 109.68L267.215 109.768L270.697 107.8ZM269.897 121L266.442 118.985L266.433 119L266.424 119.015L269.897 121ZM263.697 126.7L261.841 123.157L261.823 123.166L261.806 123.175L263.697 126.7ZM253.197 124.9C250.077 124.9 247.223 124.353 244.596 123.292L241.598 130.708C245.238 132.18 249.117 132.9 253.197 132.9V124.9ZM244.624 123.303C242.047 122.238 239.929 120.785 238.21 118.959L232.384 124.441C234.932 127.148 238.014 129.228 241.57 130.697L244.624 123.303ZM238.492 124.107L244.292 116.407L237.902 111.593L232.102 119.293L238.492 124.107ZM238.411 116.964C240.715 119.052 243 120.715 245.262 121.804L248.732 114.596C247.394 113.952 245.746 112.815 243.783 111.036L238.411 116.964ZM245.421 121.877C247.607 122.813 249.823 123.4 251.997 123.4V115.4C251.238 115.4 250.12 115.187 248.573 114.523L245.421 121.877ZM251.997 123.4C253.355 123.4 254.667 123.281 255.896 122.998L254.097 115.202C253.593 115.319 252.906 115.4 251.997 115.4V123.4ZM256.096 122.946C257.398 122.574 258.721 121.981 259.831 121.01L254.563 114.99C254.606 114.952 254.462 115.093 253.898 115.254L256.096 122.946ZM260.025 120.828C261.358 119.496 261.997 117.789 261.997 116H253.997C253.997 115.949 254.007 115.805 254.083 115.614C254.161 115.42 254.272 115.268 254.368 115.172L260.025 120.828ZM261.997 116C261.997 113.556 260.891 111.452 258.922 110.045L254.272 116.555C254.292 116.569 254.19 116.498 254.096 116.316C254.001 116.133 253.997 115.998 253.997 116H261.997ZM259.036 110.13C257.66 109.072 256.029 108.349 254.296 107.854L252.098 115.546C253.165 115.851 253.8 116.195 254.158 116.47L259.036 110.13ZM254.462 107.905C253.008 107.421 251.459 106.939 249.817 106.46L247.577 114.14C249.134 114.594 250.586 115.046 251.932 115.495L254.462 107.905ZM249.904 106.487C246.392 105.374 244.332 103.914 243.197 102.4L236.797 107.2C239.261 110.486 243.002 112.692 247.489 114.113L249.904 106.487ZM243.27 102.5C241.984 100.67 241.397 98.7995 241.397 96.8H233.397C233.397 100.534 234.543 103.997 236.724 107.1L243.27 102.5ZM241.397 96.8C241.397 95.3132 241.774 93.7369 242.653 92.0318L235.541 88.3682C234.153 91.0631 233.397 93.8868 233.397 96.8H241.397ZM242.632 92.0715C243.433 90.5579 244.723 89.2068 246.701 88.0617L242.693 81.1383C239.604 82.9265 237.16 85.3088 235.562 88.3284L242.632 92.0715ZM246.729 88.0455C248.535 86.9801 251.105 86.3 254.697 86.3V78.3C250.155 78.3 246.058 79.1532 242.665 81.1545L246.729 88.0455ZM254.697 86.3C258.122 86.3 260.823 86.6454 262.885 87.2423L265.109 79.5577C262.104 78.6879 258.605 78.3 254.697 78.3V86.3ZM262.885 87.2423C264.936 87.8361 266.915 88.8161 268.827 90.2226L273.566 83.7774C270.946 81.8505 268.124 80.4305 265.109 79.5577L262.885 87.2423ZM267.837 84.8287L262.537 93.0287L269.256 97.3713L274.556 89.1713L267.837 84.8287ZM268.375 92.0605C266.802 90.8181 265.048 89.8045 263.135 89.0077L260.058 96.3923C261.346 96.9289 262.459 97.5819 263.418 98.3395L268.375 92.0605ZM263.323 89.0915C261.437 88.1895 259.482 87.6043 257.497 87.505L257.097 95.495C257.778 95.5291 258.69 95.7439 259.871 96.3085L263.323 89.0915ZM257.519 87.5062C255.913 87.417 254.287 87.5798 252.761 88.1666L255.633 95.6334C255.84 95.5535 256.28 95.4497 257.075 95.4938L257.519 87.5062ZM252.658 88.2077C251.417 88.7249 250.236 89.4806 249.287 90.566L255.307 95.834C255.291 95.8527 255.377 95.7418 255.735 95.5923L252.658 88.2077ZM249.287 90.566C248.304 91.6892 247.597 93.1608 247.597 94.9H255.597C255.597 95.1338 255.548 95.3588 255.471 95.548C255.396 95.7281 255.318 95.8212 255.307 95.834L249.287 90.566ZM247.602 94.6898C247.467 97.2659 248.514 99.5731 250.631 101.126L255.362 94.6744C255.343 94.6602 255.363 94.6717 255.4 94.7162C255.44 94.7625 255.484 94.8279 255.522 94.9085C255.559 94.9888 255.578 95.0585 255.586 95.1049C255.594 95.1488 255.589 95.1544 255.591 95.1102L247.602 94.6898ZM250.731 101.196C252.282 102.263 254.085 102.995 256.027 103.481L257.967 95.7194C256.709 95.405 255.845 95.0038 255.263 94.6038L250.731 101.196ZM256.027 103.481C257.512 103.852 258.964 104.285 260.383 104.778L263.011 97.222C261.363 96.6487 259.681 96.148 257.967 95.7194L256.027 103.481ZM260.504 104.818C262.283 105.374 263.7 106.09 264.819 106.917L269.574 100.483C267.627 99.0437 265.377 97.9593 262.89 97.1821L260.504 104.818ZM264.819 106.917C265.88 107.701 266.62 108.59 267.119 109.589L274.275 106.011C273.174 103.81 271.58 101.966 269.574 100.483L264.819 106.917ZM267.215 109.768C267.667 110.569 267.997 111.72 267.997 113.4H275.997C275.997 110.68 275.46 108.098 274.179 105.832L267.215 109.768ZM267.997 113.4C267.997 115.328 267.501 117.169 266.442 118.985L273.352 123.015C275.093 120.031 275.997 116.805 275.997 113.4H267.997ZM266.424 119.015C265.532 120.576 264.085 121.981 261.841 123.157L265.553 130.243C268.908 128.486 271.595 126.091 273.37 122.985L266.424 119.015ZM261.806 123.175C259.831 124.235 257.039 124.9 253.197 124.9V132.9C257.888 132.9 262.096 132.098 265.588 130.225L261.806 123.175ZM287.823 65.1V61.1H283.823V65.1H287.823ZM301.823 65.1H305.823V61.1H301.823V65.1ZM301.823 84.1H297.823V88.1H301.823V84.1ZM312.423 84.1H316.423V80.1H312.423V84.1ZM312.423 95V99H316.423V95H312.423ZM301.823 95V91H297.823V95H301.823ZM301.823 128V132H305.823V128H301.823ZM287.823 128H283.823V132H287.823V128ZM287.823 95H291.823V91H287.823V95ZM281.023 95H277.023V99H281.023V95ZM281.023 84.1V80.1H277.023V84.1H281.023ZM287.823 84.1V88.1H291.823V84.1H287.823ZM287.823 69.1H301.823V61.1H287.823V69.1ZM297.823 65.1V84.1H305.823V65.1H297.823ZM301.823 88.1H312.423V80.1H301.823V88.1ZM308.423 84.1V95H316.423V84.1H308.423ZM312.423 91H301.823V99H312.423V91ZM297.823 95V128H305.823V95H297.823ZM301.823 124H287.823V132H301.823V124ZM291.823 128V95H283.823V128H291.823ZM287.823 91H281.023V99H287.823V91ZM285.023 95V84.1H277.023V95H285.023ZM281.023 88.1H287.823V80.1H281.023V88.1ZM291.823 84.1V65.1H283.823V84.1H291.823ZM330.379 126.8L328.561 130.363L328.604 130.385L328.648 130.406L330.379 126.8ZM322.579 119.2L319.102 121.177L322.579 119.2ZM330.579 85.1L332.616 88.5423L332.642 88.527L332.668 88.5114L330.579 85.1ZM350.779 84.3L348.56 87.6282L348.618 87.6667L348.677 87.7032L350.779 84.3ZM356.379 89L360.151 90.3313L360.914 88.1677L359.432 86.4162L356.379 89ZM355.779 90.7L351.859 89.9038L359.551 92.0313L355.779 90.7ZM357.079 84.3V80.3H353.81L353.159 83.5038L357.079 84.3ZM370.079 84.3H374.079V80.3H370.079V84.3ZM370.079 128V132H374.079V128H370.079ZM356.079 128H352.079V132H356.079V128ZM356.079 118.5L359.834 117.123L352.079 118.5H356.079ZM357.179 121.5V125.5H362.906L360.934 120.123L357.179 121.5ZM355.979 122.7L358.939 125.391L358.997 125.327L359.052 125.261L355.979 122.7ZM352.979 125.4L355.457 128.54L355.468 128.532L355.478 128.523L352.979 125.4ZM348.179 128L346.76 124.26L346.681 124.29L346.603 124.323L348.179 128ZM349.979 117.1L351.3 120.875L351.383 120.846L351.464 120.814L349.979 117.1ZM353.479 114.9L356.208 117.824L356.259 117.777L356.307 117.728L353.479 114.9ZM356.079 111.2L359.657 112.989L360.079 112.144V111.2H356.079ZM356.079 100.5H360.079V99.7953L359.838 99.133L356.079 100.5ZM353.679 96.8L350.85 99.6284L350.896 99.674L350.943 99.7181L353.679 96.8ZM349.879 94.4L348.364 98.1022L348.438 98.1321L348.512 98.1592L349.879 94.4ZM339.379 95.1L341.437 98.53L341.456 98.5184L341.475 98.5066L339.379 95.1ZM335.379 99.3L338.876 101.243L338.876 101.243L335.379 99.3ZM335.479 111.8L332.006 113.785L332.006 113.785L335.479 111.8ZM339.679 116.2L337.583 119.607L337.611 119.624L337.64 119.641L339.679 116.2ZM341.479 125.2C337.951 125.2 334.851 124.51 332.11 123.194L328.648 130.406C332.574 132.29 336.874 133.2 341.479 133.2V125.2ZM332.197 123.237C329.673 121.949 327.63 119.991 326.056 117.223L319.102 121.177C321.394 125.209 324.551 128.317 328.561 130.363L332.197 123.237ZM326.056 117.223C324.564 114.599 323.679 111.005 323.679 106.2H315.679C315.679 111.929 316.727 117.001 319.102 121.177L326.056 117.223ZM323.679 106.2C323.679 101.812 324.565 98.241 326.176 95.3426L319.182 91.4574C316.793 95.7589 315.679 100.721 315.679 106.2H323.679ZM326.176 95.3426C327.861 92.3087 330.012 90.0836 332.616 88.5423L328.542 81.6577C324.613 83.983 321.497 87.2913 319.182 91.4574L326.176 95.3426ZM332.668 88.5114C335.335 86.8783 338.083 86.1 340.979 86.1V78.1C336.541 78.1 332.356 79.3217 328.49 81.6886L332.668 88.5114ZM340.979 86.1C344.979 86.1 347.315 86.7982 348.56 87.6282L352.998 80.9718C349.843 78.8684 345.645 78.1 340.979 78.1V86.1ZM348.677 87.7032C350.646 88.9193 352.173 90.2221 353.325 91.5838L359.432 86.4162C357.651 84.3112 355.445 82.4807 352.881 80.8968L348.677 87.7032ZM352.607 87.6687L352.007 89.3687L359.551 92.0313L360.151 90.3313L352.607 87.6687ZM359.699 91.4962L360.999 85.0962L353.159 83.5038L351.859 89.9038L359.699 91.4962ZM357.079 88.3H370.079V80.3H357.079V88.3ZM366.079 84.3V128H374.079V84.3H366.079ZM370.079 124H356.079V132H370.079V124ZM360.079 128V118.5H352.079V128H360.079ZM352.323 119.877L353.423 122.877L360.934 120.123L359.834 117.123L352.323 119.877ZM357.179 117.5C356.256 117.5 355.579 117.815 355.328 117.941C355.011 118.099 354.771 118.269 354.629 118.375C354.342 118.59 354.106 118.816 353.95 118.972C353.622 119.3 353.264 119.71 352.906 120.139L359.052 125.261C359.36 124.89 359.536 124.7 359.607 124.628C359.652 124.584 359.582 124.66 359.429 124.775C359.354 124.831 359.172 124.963 358.905 125.096C358.767 125.166 358.562 125.258 358.3 125.336C358.045 125.413 357.658 125.5 357.179 125.5V117.5ZM353.019 120.009C352.56 120.514 351.748 121.262 350.48 122.277L355.478 128.523C356.876 127.405 358.064 126.352 358.939 125.391L353.019 120.009ZM350.5 122.26C349.63 122.948 348.413 123.633 346.76 124.26L349.598 131.74C351.811 130.9 353.795 129.852 355.457 128.54L350.5 122.26ZM346.603 124.323C345.353 124.859 343.683 125.2 341.479 125.2V133.2C344.475 133.2 347.272 132.741 349.755 131.677L346.603 124.323ZM345.479 121.8C347.517 121.8 349.474 121.515 351.3 120.875L348.658 113.325C347.817 113.619 346.775 113.8 345.479 113.8V121.8ZM351.464 120.814C353.234 120.106 354.828 119.112 356.208 117.824L350.75 111.976C350.13 112.554 349.39 113.027 348.493 113.386L351.464 120.814ZM356.307 117.728C357.655 116.38 358.761 114.78 359.657 112.989L352.501 109.411C351.93 110.553 351.302 111.42 350.65 112.072L356.307 117.728ZM360.079 111.2V100.5H352.079V111.2H360.079ZM359.838 99.133C359.105 97.1169 357.97 95.3401 356.415 93.8818L350.943 99.7181C351.521 100.26 351.986 100.95 352.32 101.867L359.838 99.133ZM356.507 93.9716C355.013 92.4772 353.242 91.3668 351.246 90.6408L348.512 98.1592C349.449 98.4999 350.212 98.9895 350.85 99.6284L356.507 93.9716ZM351.393 90.6978C349.385 89.8762 347.228 89.5 344.979 89.5V97.5C346.33 97.5 347.439 97.7238 348.364 98.1022L351.393 90.6978ZM344.979 89.5C342.225 89.5 339.635 90.246 337.283 91.6934L341.475 98.5066C342.59 97.8207 343.733 97.5 344.979 97.5V89.5ZM337.321 91.67C335.016 93.0527 333.202 94.9818 331.882 97.3574L338.876 101.243C339.556 100.018 340.408 99.1473 341.437 98.53L337.321 91.67ZM331.882 97.3574C330.51 99.8271 329.879 102.579 329.879 105.5H337.879C337.879 103.755 338.248 102.373 338.876 101.243L331.882 97.3574ZM329.879 105.5C329.879 108.468 330.565 111.263 332.006 113.785L338.952 109.815C338.26 108.604 337.879 107.198 337.879 105.5H329.879ZM332.006 113.785C333.386 116.199 335.246 118.169 337.583 119.607L341.775 112.793C340.645 112.098 339.705 111.134 338.952 109.815L332.006 113.785ZM337.64 119.641C340.049 121.069 342.685 121.8 345.479 121.8V113.8C344.139 113.8 342.909 113.464 341.718 112.759L337.64 119.641ZM397.105 84.3L401.081 83.8692L400.695 80.3H397.105V84.3ZM398.405 96.3L394.459 96.9576L402.381 95.8692L398.405 96.3ZM398.105 94.5L394.509 92.7481L393.949 93.897L394.159 95.1576L398.105 94.5ZM403.305 87.9L405.838 90.9958L405.865 90.9732L405.893 90.95L403.305 87.9ZM409.805 83.6L408.149 79.9585L408.128 79.9682L408.107 79.9782L409.805 83.6ZM414.805 82.1L418.8 82.2997L419.01 78.1H414.805V82.1ZM414.105 96.1L413.619 100.07L417.885 100.593L418.1 96.2997L414.105 96.1ZM405.705 97.7L407.833 101.087L407.833 101.087L405.705 97.7ZM400.305 103.5L396.767 101.633L396.767 101.633L400.305 103.5ZM398.405 128V132H402.405V128H398.405ZM384.505 128H380.505V132H384.505V128ZM384.505 84.3V80.3H380.505V84.3H384.505ZM393.128 84.7308L394.428 96.7308L402.381 95.8692L401.081 83.8692L393.128 84.7308ZM402.35 95.6424L402.05 93.8424L394.159 95.1576L394.459 96.9576L402.35 95.6424ZM401.701 96.2519C402.719 94.162 404.093 92.4234 405.838 90.9958L400.772 84.8042C398.117 86.9766 396.024 89.638 394.509 92.7481L401.701 96.2519ZM405.893 90.95C407.881 89.2633 409.752 88.0423 411.502 87.2218L408.107 79.9782C405.591 81.1577 403.129 82.8034 400.717 84.85L405.893 90.95ZM411.46 87.2415C412.454 86.7897 413.245 86.489 413.854 86.3063C414.155 86.216 414.387 86.1619 414.558 86.1315C414.732 86.1004 414.808 86.1 414.805 86.1V78.1C412.751 78.1 410.412 78.9303 408.149 79.9585L411.46 87.2415ZM410.81 81.9002L410.11 95.9002L418.1 96.2997L418.8 82.2997L410.81 81.9002ZM414.591 92.1297C410.596 91.6405 406.832 92.2669 403.576 94.3135L407.833 101.087C409.244 100.2 411.08 99.7595 413.619 100.07L414.591 92.1297ZM403.576 94.3135C400.657 96.148 398.367 98.6014 396.767 101.633L403.842 105.367C404.776 103.599 406.085 102.185 407.833 101.087L403.576 94.3135ZM396.767 101.633C395.219 104.566 394.405 107.67 394.405 110.9H402.405C402.405 109.063 402.857 107.234 403.842 105.367L396.767 101.633ZM394.405 110.9V128H402.405V110.9H394.405ZM398.405 124H384.505V132H398.405V124ZM388.505 128V84.3H380.505V128H388.505ZM384.505 88.3H397.105V80.3H384.505V88.3ZM429.62 65.1V61.1H425.62V65.1H429.62ZM443.62 65.1H447.62V61.1H443.62V65.1ZM443.62 84.1H439.62V88.1H443.62V84.1ZM454.22 84.1H458.22V80.1H454.22V84.1ZM454.22 95V99H458.22V95H454.22ZM443.62 95V91H439.62V95H443.62ZM443.62 128V132H447.62V128H443.62ZM429.62 128H425.62V132H429.62V128ZM429.62 95H433.62V91H429.62V95ZM422.82 95H418.82V99H422.82V95ZM422.82 84.1V80.1H418.82V84.1H422.82ZM429.62 84.1V88.1H433.62V84.1H429.62ZM429.62 69.1H443.62V61.1H429.62V69.1ZM439.62 65.1V84.1H447.62V65.1H439.62ZM443.62 88.1H454.22V80.1H443.62V88.1ZM450.22 84.1V95H458.22V84.1H450.22ZM454.22 91H443.62V99H454.22V91ZM439.62 95V128H447.62V95H439.62ZM443.62 124H429.62V132H443.62V124ZM433.62 128V95H425.62V128H433.62ZM429.62 91H422.82V99H429.62V91ZM426.82 95V84.1H418.82V95H426.82ZM422.82 88.1H429.62V80.1H422.82V88.1ZM433.62 84.1V65.1H425.62V84.1H433.62ZM469.076 126.5L466.36 129.436L466.38 129.455L466.4 129.473L469.076 126.5ZM464.876 117H460.876V117.069L460.878 117.138L464.876 117ZM464.876 84.3V80.3H460.876V84.3H464.876ZM478.876 84.3H482.876V80.3H478.876V84.3ZM478.876 111.8H474.876V111.938L474.885 112.075L478.876 111.8ZM480.376 116.5L477.133 118.842L477.165 118.886L477.198 118.93L480.376 116.5ZM490.076 116.1L487.379 113.146L487.346 113.176L487.314 113.207L490.076 116.1ZM493.576 110.4L489.802 109.074L489.791 109.104L489.781 109.135L493.576 110.4ZM494.876 84.3V80.3H490.876V84.3H494.876ZM508.876 84.3H512.876V80.3H508.876V84.3ZM508.876 128V132H512.876V128H508.876ZM496.176 128L492.213 128.545L492.688 132H496.176V128ZM495.076 120L498.981 119.132L491.113 120.545L495.076 120ZM495.276 120.9L498.772 122.843L499.51 121.515L499.181 120.032L495.276 120.9ZM491.476 125.7L488.779 122.746L491.476 125.7ZM485.976 128.9L484.675 125.117L484.603 125.142L484.532 125.17L485.976 128.9ZM478.976 126.1C475.928 126.1 473.611 125.2 471.752 123.527L466.4 129.473C469.874 132.6 474.157 134.1 478.976 134.1V126.1ZM471.792 123.564C469.963 121.872 468.973 119.739 468.873 116.862L460.878 117.138C461.046 121.994 462.855 126.194 466.36 129.436L471.792 123.564ZM468.876 117V84.3H460.876V117H468.876ZM464.876 88.3H478.876V80.3H464.876V88.3ZM474.876 84.3V111.8H482.876V84.3H474.876ZM474.885 112.075C475.054 114.528 475.713 116.876 477.133 118.842L483.618 114.158C483.305 113.724 482.964 112.939 482.866 111.525L474.885 112.075ZM477.198 118.93C479.118 121.44 482.049 122.2 484.776 122.2V114.2C484.089 114.2 483.721 114.103 483.567 114.044C483.449 113.998 483.494 113.993 483.553 114.07L477.198 118.93ZM484.776 122.2C487.849 122.2 490.611 121.119 492.838 118.993L487.314 113.207C486.607 113.881 485.836 114.2 484.776 114.2V122.2ZM492.773 119.054C494.909 117.103 496.402 114.572 497.371 111.665L489.781 109.135C489.15 111.028 488.309 112.297 487.379 113.146L492.773 119.054ZM497.35 111.726C498.389 108.767 498.876 105.542 498.876 102.1H490.876C490.876 104.791 490.496 107.1 489.802 109.074L497.35 111.726ZM498.876 102.1V84.3H490.876V102.1H498.876ZM494.876 88.3H508.876V80.3H494.876V88.3ZM504.876 84.3V128H512.876V84.3H504.876ZM508.876 124H496.176V132H508.876V124ZM500.138 127.455L499.038 119.455L491.113 120.545L492.213 128.545L500.138 127.455ZM491.171 120.868L491.371 121.768L499.181 120.032L498.981 119.132L491.171 120.868ZM491.779 118.957C490.991 120.376 489.995 121.635 488.779 122.746L494.173 128.654C496.023 126.965 497.561 125.024 498.772 122.843L491.779 118.957ZM488.779 122.746C487.683 123.746 486.337 124.546 484.675 125.117L487.276 132.683C489.882 131.787 492.202 130.454 494.173 128.654L488.779 122.746ZM484.532 125.17C482.998 125.763 481.166 126.1 478.976 126.1V134.1C481.986 134.1 484.82 133.637 487.42 132.63L484.532 125.17ZM542.974 127.8L541.471 131.507L541.531 131.531L541.591 131.553L542.974 127.8ZM536.774 123.6L532.793 123.212L532.619 125L533.839 126.318L536.774 123.6ZM537.174 119.5H541.174L533.193 119.112L537.174 119.5ZM537.174 149V153H541.174V149H537.174ZM523.274 149H519.274V153H523.274V149ZM523.274 83.3V79.3H519.274V83.3H523.274ZM535.274 83.3L539.168 82.3838L538.442 79.3H535.274V83.3ZM537.274 91.8L533.519 93.177L541.168 90.8838L537.274 91.8ZM536.174 88.8L533.578 85.7567L531.46 87.5633L532.419 90.177L536.174 88.8ZM564.374 85L562.306 88.4237L562.332 88.4396L562.359 88.4551L564.374 85ZM571.874 93.2L568.297 94.9889L568.317 95.0289L568.337 95.0685L571.874 93.2ZM571.574 118.6L568.138 116.552L568.138 116.552L571.574 118.6ZM563.074 126.5L564.863 130.078L564.863 130.078L563.074 126.5ZM554.074 116.7L552.237 113.147L552.211 113.16L552.185 113.174L554.074 116.7ZM558.674 112.5L555.31 110.337L555.299 110.353L555.289 110.369L558.674 112.5ZM558.874 99.8L555.348 101.689L555.389 101.765L555.433 101.839L558.874 99.8ZM554.674 95.5L552.578 98.9066L552.654 98.9533L552.732 98.9966L554.674 95.5ZM543.874 94.7L545.139 98.4947L545.19 98.4776L545.241 98.4592L543.874 94.7ZM540.074 96.9L542.708 99.9103L542.714 99.9048L542.721 99.8993L540.074 96.9ZM537.274 100.5L533.763 98.5846L533.274 99.48V100.5H537.274ZM537.274 111.2H533.274V111.936L533.536 112.624L537.274 111.2ZM539.574 114.9L542.492 112.164L542.492 112.164L539.574 114.9ZM543.174 117.4L541.599 121.077L541.702 121.121L541.807 121.159L543.174 117.4ZM550.674 125.2C548.564 125.2 546.465 124.823 544.357 124.047L541.591 131.553C544.55 132.643 547.584 133.2 550.674 133.2V125.2ZM544.477 124.093C542.508 123.295 540.944 122.216 539.709 120.882L533.839 126.318C535.938 128.584 538.507 130.305 541.471 131.507L544.477 124.093ZM540.755 123.988L541.155 119.888L533.193 119.112L532.793 123.212L540.755 123.988ZM533.174 119.5V149H541.174V119.5H533.174ZM537.174 145H523.274V153H537.174V145ZM527.274 149V83.3H519.274V149H527.274ZM523.274 87.3H535.274V79.3H523.274V87.3ZM531.381 84.2162L533.381 92.7162L541.168 90.8838L539.168 82.3838L531.381 84.2162ZM541.03 90.423L539.93 87.423L532.419 90.177L533.519 93.177L541.03 90.423ZM538.77 91.8433C540.742 90.1615 542.954 88.7611 545.423 87.6444L542.126 80.3556C538.994 81.7722 536.14 83.5718 533.578 85.7567L538.77 91.8433ZM545.423 87.6444C547.615 86.6529 550.268 86.1 553.474 86.1V78.1C549.347 78.1 545.534 78.8137 542.126 80.3556L545.423 87.6444ZM553.474 86.1C556.878 86.1 559.784 86.9002 562.306 88.4237L566.443 81.5763C562.564 79.2331 558.204 78.1 553.474 78.1V86.1ZM562.359 88.4551C564.829 89.8961 566.813 92.0216 568.297 94.9889L575.452 91.4111C573.336 87.1784 570.319 83.8372 566.39 81.5449L562.359 88.4551ZM568.337 95.0685C569.833 97.8991 570.674 101.491 570.674 106H578.674C578.674 100.509 577.649 95.5675 575.411 91.3315L568.337 95.0685ZM570.674 106C570.674 110.372 569.762 113.829 568.138 116.552L575.01 120.648C577.52 116.438 578.674 111.494 578.674 106H570.674ZM568.138 116.552C566.462 119.364 564.2 121.465 561.285 122.922L564.863 130.078C569.149 127.935 572.553 124.77 575.01 120.648L568.138 116.552ZM561.285 122.922C558.323 124.403 554.819 125.2 550.674 125.2V133.2C555.863 133.2 560.625 132.197 564.863 130.078L561.285 122.922ZM547.874 122.2C550.752 122.2 553.475 121.559 555.963 120.226L552.185 113.174C550.94 113.841 549.53 114.2 547.874 114.2V122.2ZM555.912 120.253C558.463 118.933 560.537 117.049 562.059 114.631L555.289 110.369C554.545 111.551 553.552 112.467 552.237 113.147L555.912 120.253ZM562.039 114.663C563.676 112.117 564.474 109.259 564.474 106.2H556.474C556.474 107.808 556.073 109.15 555.31 110.337L562.039 114.663ZM564.474 106.2C564.474 103.145 563.809 100.281 562.315 97.7608L555.433 101.839C556.073 102.919 556.474 104.321 556.474 106.2H564.474ZM562.4 97.9111C561.048 95.388 559.108 93.3873 556.617 92.0034L552.732 98.9966C553.841 99.6127 554.7 100.479 555.348 101.689L562.4 97.9111ZM556.771 92.0934C554.376 90.6196 551.71 89.9 548.874 89.9V97.9C550.305 97.9 551.506 98.247 552.578 98.9066L556.771 92.0934ZM548.874 89.9C546.63 89.9 544.489 90.2204 542.507 90.9408L545.241 98.4592C546.193 98.113 547.385 97.9 548.874 97.9V89.9ZM542.609 90.9053C540.688 91.5458 538.954 92.5543 537.428 93.9006L542.721 99.8993C543.462 99.2457 544.261 98.7875 545.139 98.4947L542.609 90.9053ZM537.44 93.8897C535.962 95.1834 534.749 96.7764 533.763 98.5846L540.786 102.415C541.4 101.29 542.053 100.483 542.708 99.9103L537.44 93.8897ZM533.274 100.5V111.2H541.274V100.5H533.274ZM533.536 112.624C534.25 114.498 535.291 116.18 536.656 117.636L542.492 112.164C541.857 111.487 541.365 110.702 541.012 109.776L533.536 112.624ZM536.656 117.636C538.05 119.122 539.713 120.268 541.599 121.077L544.75 113.723C543.836 113.332 543.099 112.811 542.492 112.164L536.656 117.636ZM541.807 121.159C543.741 121.862 545.773 122.2 547.874 122.2V114.2C546.642 114.2 545.541 114.004 544.541 113.641L541.807 121.159ZM589.777 127L588.25 130.697L588.263 130.703L588.277 130.708L589.777 127ZM581.977 121.7L578.782 119.293L576.753 121.986L579.064 124.441L581.977 121.7ZM587.777 114L590.463 111.036L587.217 108.095L584.582 111.593L587.777 114ZM593.677 118.2L591.941 121.804L592.02 121.842L592.101 121.877L593.677 118.2ZM601.677 119.1L602.576 122.998L602.676 122.974L602.775 122.946L601.677 119.1ZM603.877 118L606.511 121.01L606.611 120.923L606.705 120.828L603.877 118ZM603.277 113.3L600.838 116.47L600.894 116.514L600.952 116.555L603.277 113.3ZM599.877 111.7L598.612 115.495L598.694 115.522L598.778 115.546L599.877 111.7ZM595.377 110.3L594.169 114.113L594.213 114.127L594.257 114.14L595.377 110.3ZM586.677 104.8L583.404 107.1L583.439 107.15L583.477 107.2L586.677 104.8ZM585.777 90.2L582.241 88.3284L582.231 88.3483L582.221 88.3682L585.777 90.2ZM591.377 84.6L593.381 88.0617L593.395 88.0536L593.409 88.0455L591.377 84.6ZM610.677 83.4L609.564 87.2423L609.564 87.2423L610.677 83.4ZM617.877 87L621.236 89.1713L623.28 86.0084L620.246 83.7774L617.877 87ZM612.577 95.2L610.098 98.3395L613.549 101.064L615.936 97.3713L612.577 95.2ZM608.277 92.7L606.551 96.3085L606.643 96.3528L606.738 96.3923L608.277 92.7ZM603.977 91.5L603.755 95.4938L603.766 95.4945L603.777 95.495L603.977 91.5ZM600.877 91.9L599.441 88.1666L599.389 88.1864L599.338 88.2077L600.877 91.9ZM598.977 93.2L595.966 90.566L595.966 90.566L598.977 93.2ZM598.277 94.9L602.271 95.1102L602.277 95.0052V94.9H598.277ZM599.677 97.9L597.311 101.126L597.36 101.162L597.41 101.196L599.677 97.9ZM603.677 99.6L602.706 103.481L602.706 103.481L603.677 99.6ZM608.377 101L607.062 104.778L607.123 104.799L607.183 104.818L608.377 101ZM613.877 103.7L611.499 106.917L611.499 106.917L613.877 103.7ZM617.377 107.8L613.799 109.589L613.844 109.68L613.894 109.768L617.377 107.8ZM616.577 121L613.121 118.985L613.112 119L613.104 119.015L616.577 121ZM610.377 126.7L608.521 123.157L608.503 123.166L608.485 123.175L610.377 126.7ZM599.877 124.9C596.756 124.9 593.902 124.353 591.276 123.292L588.277 130.708C591.918 132.18 595.797 132.9 599.877 132.9V124.9ZM591.304 123.303C588.726 122.238 586.609 120.785 584.889 118.959L579.064 124.441C581.611 127.148 584.694 129.228 588.25 130.697L591.304 123.303ZM585.172 124.107L590.972 116.407L584.582 111.593L578.782 119.293L585.172 124.107ZM585.09 116.964C587.395 119.052 589.68 120.715 591.941 121.804L595.412 114.596C594.073 113.952 592.425 112.815 590.463 111.036L585.09 116.964ZM592.101 121.877C594.286 122.813 596.503 123.4 598.677 123.4V115.4C597.917 115.4 596.8 115.187 595.252 114.523L592.101 121.877ZM598.677 123.4C600.034 123.4 601.347 123.281 602.576 122.998L600.777 115.202C600.273 115.319 599.585 115.4 598.677 115.4V123.4ZM602.775 122.946C604.078 122.574 605.401 121.981 606.511 121.01L601.243 114.99C601.285 114.952 601.142 115.093 600.578 115.254L602.775 122.946ZM606.705 120.828C608.038 119.496 608.677 117.789 608.677 116H600.677C600.677 115.949 600.687 115.805 600.763 115.614C600.841 115.42 600.951 115.268 601.048 115.172L606.705 120.828ZM608.677 116C608.677 113.556 607.571 111.452 605.602 110.045L600.952 116.555C600.972 116.569 600.87 116.498 600.776 116.316C600.681 116.133 600.677 115.998 600.677 116H608.677ZM605.715 110.13C604.34 109.072 602.709 108.349 600.975 107.854L598.778 115.546C599.844 115.851 600.48 116.195 600.838 116.47L605.715 110.13ZM601.141 107.905C599.688 107.421 598.139 106.939 596.497 106.46L594.257 114.14C595.814 114.594 597.265 115.046 598.612 115.495L601.141 107.905ZM596.584 106.487C593.072 105.374 591.012 103.914 589.877 102.4L583.477 107.2C585.941 110.486 589.681 112.692 594.169 114.113L596.584 106.487ZM589.949 102.5C588.663 100.67 588.077 98.7995 588.077 96.8H580.077C580.077 100.534 581.223 103.997 583.404 107.1L589.949 102.5ZM588.077 96.8C588.077 95.3132 588.454 93.7369 589.332 92.0318L582.221 88.3682C580.832 91.0631 580.077 93.8868 580.077 96.8H588.077ZM589.312 92.0715C590.113 90.5579 591.403 89.2068 593.381 88.0617L589.372 81.1383C586.284 82.9265 583.84 85.3088 582.241 88.3284L589.312 92.0715ZM593.409 88.0455C595.215 86.9801 597.785 86.3 601.377 86.3V78.3C596.835 78.3 592.738 79.1532 589.345 81.1545L593.409 88.0455ZM601.377 86.3C604.802 86.3 607.502 86.6454 609.564 87.2423L611.789 79.5577C608.784 78.6879 605.285 78.3 601.377 78.3V86.3ZM609.564 87.2423C611.616 87.8361 613.594 88.8161 615.507 90.2226L620.246 83.7774C617.626 81.8505 614.804 80.4305 611.789 79.5577L609.564 87.2423ZM614.517 84.8287L609.217 93.0287L615.936 97.3713L621.236 89.1713L614.517 84.8287ZM615.055 92.0605C613.481 90.8181 611.727 89.8045 609.815 89.0077L606.738 96.3923C608.026 96.9289 609.138 97.5819 610.098 98.3395L615.055 92.0605ZM610.002 89.0915C608.116 88.1895 606.162 87.6043 604.176 87.505L603.777 95.495C604.458 95.5291 605.37 95.7439 606.551 96.3085L610.002 89.0915ZM604.198 87.5062C602.593 87.417 600.966 87.5798 599.441 88.1666L602.312 95.6334C602.52 95.5535 602.96 95.4497 603.755 95.4938L604.198 87.5062ZM599.338 88.2077C598.097 88.7249 596.916 89.4806 595.966 90.566L601.987 95.834C601.97 95.8527 602.056 95.7418 602.415 95.5923L599.338 88.2077ZM595.966 90.566C594.983 91.6892 594.277 93.1608 594.277 94.9H602.277C602.277 95.1338 602.228 95.3588 602.15 95.548C602.076 95.7281 601.998 95.8212 601.987 95.834L595.966 90.566ZM594.282 94.6898C594.147 97.2659 595.194 99.5731 597.311 101.126L602.042 94.6744C602.023 94.6602 602.042 94.6717 602.08 94.7162C602.119 94.7625 602.164 94.8279 602.201 94.9085C602.239 94.9888 602.258 95.0585 602.266 95.1049C602.273 95.1488 602.269 95.1544 602.271 95.1102L594.282 94.6898ZM597.41 101.196C598.962 102.263 600.764 102.995 602.706 103.481L604.647 95.7194C603.389 95.405 602.524 95.0038 601.943 94.6038L597.41 101.196ZM602.706 103.481C604.192 103.852 605.644 104.285 607.062 104.778L609.691 97.222C608.042 96.6487 606.361 96.148 604.647 95.7194L602.706 103.481ZM607.183 104.818C608.963 105.374 610.38 106.09 611.499 106.917L616.254 100.483C614.306 99.0437 612.057 97.9593 609.57 97.1821L607.183 104.818ZM611.499 106.917C612.56 107.701 613.299 108.59 613.799 109.589L620.954 106.011C619.854 103.81 618.26 101.966 616.254 100.483L611.499 106.917ZM613.894 109.768C614.347 110.569 614.677 111.72 614.677 113.4H622.677C622.677 110.68 622.14 108.098 620.859 105.832L613.894 109.768ZM614.677 113.4C614.677 115.328 614.18 117.169 613.121 118.985L620.032 123.015C621.773 120.031 622.677 116.805 622.677 113.4H614.677ZM613.104 119.015C612.212 120.576 610.765 121.981 608.521 123.157L612.233 130.243C615.588 128.486 618.275 126.091 620.05 122.985L613.104 119.015ZM608.485 123.175C606.511 124.235 603.719 124.9 599.877 124.9V132.9C604.568 132.9 608.776 132.098 612.268 130.225L608.485 123.175Z" fill="#0029FF" mask="url(#path-3-outside-1_12_3)"/>
</svg>
