<?xml version="1.0" encoding="UTF-8"?>
<svg version="1.1" viewBox="0 0 2048 619" xmlns="http://www.w3.org/2000/svg">
  <path transform="translate(326)" d="m0 0h54l35 6 24 6 26 9 24 11 21 12 12 8 16 12 11 9 7 7 8 7 8 8 7 8 11 13 12 17 12 19 14 27 10 25 7 23 6 27 3 21 1 12v45l-2 20-5 28-7 26-10 27-14 29-11 18-11 16-11 14-11 12-12 13-8 7-11 10-16 12-20 13-23 12-19 9-33 11-27 6-25 4h-51l-40-7-26-7-24-9-22-10-17-10-14-9-16-12-11-9-7-7-8-7-7-7-7-8-8-9-10-13-14-21-9-16-8-16-8-18-9-27-6-25-4-25-2-25v-25l2-25 5-30 7-27 9-25 9-20 9-17 13-21 13-17 9-11 11-12 17-17 11-9 17-13 17-11 24-13 23-10 27-9 27-6z" fill="#0028FE"/>
  <path transform="translate(322,103)" d="m0 0 11 6 10 7 44 29 45 30-1 3-16 8-23 14-11 8-12 9-11 9-10 9-26 26-18 22-12 17-13 23-9 21-5 17-3 14-2 17v8l19 2 14 1h50l31-3h4l-5-75v-17l35-3 61-4h8l-1 17-21 196-5 2-53 6h-10l-5-64h-57l-24-3-29-6-27-8-21-9-14-9-3-7-5-27-3-27-1-20v-12l2-28 5-30 7-26 7-19 8-18 12-22 14-21 9-12 13-15 12-12 11-9 10-7z" fill="#FDFDFD"/>
  <path transform="translate(1713,253)" d="m0 0h21l15 4 12 7 11 10 7 10 6 13 4 15 2 15v20l-2 16-4 15-8 16-8 10-9 8-14 7-12 3h-21l-13-4-10-7-7-7-6-10-1 87-43 1-3-1v-225l1-1h44v28l3-3 7-10 4-5 10-7 10-4zm-10 36-10 4-8 7-6 10-4 15v24l3 12 7 14 8 7 11 4h11l11-4 8-7 5-8 4-13 1-5v-23l-4-16-6-10-8-7-11-4z"/>
  <path transform="translate(1074,253)" d="m0 0h27l18 4 12 5 11 8 8 9 5 10 2 8 1 16v106l-26 1h-17l-1-1-1-21-8 10-8 7-11 5-8 2-19 1-17-3-14-7-7-6-7-11-4-13v-18l3-11 6-10 8-8 16-8 16-4 34-4 12-3 5-2 1-3v-9l-4-9-6-5-7-2h-14l-11 4-6 5-5 9-32-2-9-1-1-4 6-14 7-9 8-8 14-8 16-5zm36 91-16 4-22 4-10 4-5 4-3 7v11l5 8 8 4 4 1h15l11-4 10-9 4-8 1-3 1-22z"/>
  <path transform="translate(1443,255)" d="m0 0h42l3 1 1 103 4 11 4 6 9 5 4 1h13l9-3 8-6 6-12 1-6 1-100h45l1 1v163l-22 1h-17l-5-1v-29l-3 3-7 11-7 7-10 6-11 4-6 1h-15l-16-4-10-6-9-8-7-11-5-13-2-14v-110z"/>
  <path transform="translate(784,253)" d="m0 0h28l15 3 13 5 10 7 8 8 7 12 3 11-1 3-26 2h-15l-5-9-7-6-10-3h-12l-9 3-6 4-3 6 1 8 4 5 10 4 28 6 17 4 13 5 10 6 8 8 5 10 2 9v10l-3 12-7 12-9 9-14 8-18 6-17 2h-14l-16-2-14-4-12-6-9-7-7-8-6-12-3-12 27-2h19l4 9 5 5 9 4 6 1h12l10-3 6-4 3-5v-8l-3-5-10-5-28-6-21-5-10-4-10-7-8-9-4-8-2-8v-16l4-13 4-6 8-9 11-7 13-5z"/>
  <path transform="translate(1875,253)" d="m0 0h27l16 3 12 5 11 7 9 10 7 14 1 9-1 1-26 2h-15l-5-10-5-4-7-3-5-1h-11l-10 3-6 4-2 4v8l4 6 7 4 21 5 28 6 13 5 11 7 8 9 4 9 1 4v18l-4 11-7 11-9 8-12 7-15 5-10 2-11 1h-13l-17-2-16-5-11-6-10-9-7-9-5-13-1-7 26-2h19l5 10 6 5 8 3 5 1h12l13-4 6-6 1-7-3-7-5-4-13-4-30-6-17-5-11-6-8-7-6-10-3-9-1-13 3-14 5-10 11-11 15-8 15-4z"/>
  <path transform="translate(912,215)" d="m0 0h44l1 1v39h31v34h-31l1 87 4 6 5 2h17l7 31-1 3-12 3-7 1h-17l-14-3-12-6-9-9-5-10-2-6-1-7v-92h-22v-34h22v-39z"/>
  <path transform="translate(1336,215)" d="m0 0 45 1 1 4v24l-1 11h30l1 1v33h-30v82l2 10 5 2 3 1h16l2 6 5 23-1 5-11 3-7 1h-18l-14-3-13-7-9-10-5-12-1-4v-97h-23v-34h23z"/>
  <path transform="translate(1269,253)" d="m0 0h22l2 1v40l-12-1h-13l-10 3-9 6-6 7-3 9-1 101-21 1h-24l-1-1v-164h44l1 28 8-15 8-8 11-6z"/>
</svg>
