<?xml version="1.0" encoding="UTF-8"?>
<svg version="1.1" viewBox="0 0 868 820" xmlns="http://www.w3.org/2000/svg">
<path transform="translate(435)" d="m0 0h66l38 6 28 6 26 8 20 7 25 11 21 11 17 10 18 12 16 12 11 9 14 12 27 27 9 11 11 13 13 18 13 20 14 25 12 25 12 31 9 30 8 39 5 34v64l-5 36-8 38-8 28-10 26-9 21-13 25-12 20-8 12-12 16-13 16-9 10-2 3h-2l-2 4-19 19-8 7-14 12-19 14-23 15-18 10-28 14-20 8-30 10-28 7-34 6-14 2h-64l-42-7-27-6-20-6-23-8-30-13-24-13-24-15-17-13-14-11-12-11-3-2v-2l-4-2-17-17-7-8-9-10-11-14-11-15-13-20-12-21-12-24-10-25-11-33-7-29-5-30-3-32v-47l3-31 5-30 7-29 7-22 10-27 14-29 8-15 12-20 11-16 13-17 11-13 11-12 26-26 11-9 15-12 17-12 19-12 24-13 21-10 26-10 26-8 30-7 30-5z" fill="#0027FE"/>
<path transform="translate(425,137)" d="m0 0 6 1 10 7 44 29 87 58v3l-17 8-28 17-21 14-21 16-14 12-8 7-4 4h-2l-2 4h-2l-2 4h-2l-2 4-4 4h-2l-2 4h-2l-2 4-9 9-9 11-10 12-9 12-14 21-11 19-12 25-6 17-4 14-5 25-2 21v6l7 2 37 3h67l34-3 11-2v-12l-7-103v-5l1-1 49-4 46-3 31-2 11-1 1 1-1 15-27 252-1 14-1 2-11 2-71 8h-7l-1-4-5-73-1-8h-71l-27-3-28-5-30-7-33-11-18-8-14-8-8-6-3-9-6-33-4-32-1-14v-50l3-29 3-19 7-31 7-23 10-25 7-16 12-22 14-23 11-16 11-14 11-13 12-13 14-13 13-10 18-12z" fill="#FEFEFE"/>
</svg>